# xmcd
#
# Track frame offsets:
#	150
#	10907
#	23164
#	32755
#	43480
#	53054
#	62531
#	73308
#	83636
#	96075
#	105954
#	115625
#	126216
#	136633
#	146119
#	156987
#	167589
#	178154
#	189465
#	201657
#	213765
#	225738
#	242782
#	252711
#	263030
#	275128
#	288637
#
# Disc length: 3999 seconds
#
# Revision: 1
# Processed by: cddbd v1.5.2PL0 Copyright (c) Steve Scherf et al.
# Submitted via: audiograbber 1.83.01
#
DISCID=940f9d1b
DTITLE=Various Artist - The Northern Soul Of Vee Jay Records
DYEAR=2011
DGENRE=Soul
TTITLE0=Fred Hughes - Don't Let Me Down
TTITLE1=The Rivingtons - I Love You Always
TTITLE2=Betty Everett - Too Hot To Hold
TTITLE3=The Ballads - I Can't See Your Love
TTITLE4=The Dontells - In Your Heart (You Know I'm Right)
TTITLE5=Barrett Strong - Gonna Take A Journey
TTITLE6=The Rubies - A Spanish Boy
TTITLE7=The Rivingtons - Years Of Tears
TTITLE8=Fred Hughes - You Can't Take It Away
TTITLE9=Jerry Butler - I'm The One
TTITLE10=Yvonne Carroll - Please Don't Go
TTITLE11=Wade Flemons - I Came Running (Back From The Party)
TTITLE12=The King-Pins - A Lucky Guy
TTITLE13=Betty Everett - Trouble Over The Weekend
TTITLE14=Fred Hughes - Oo Wee Baby, I Love You
TTITLE15=Moss Tolbert - Money In My Pocket
TTITLE16=The Rubies - Deeper
TTITLE17=Jerry Butler - Just A Little Bit
TTITLE18=Melinda Marx - What
TTITLE19=Wade Flemons - I Can't Get Away From Your Love
TTITLE20=Fred Hughes - I Keep Tryin'
TTITLE21=Billy Preston - Billy's Bag
TTITLE22=Betty Everett - Getting Mighty Crowded
TTITLE23=The Dells - Hey Sugar (Don't Get Serious)
TTITLE24=Gene Chandler - Check Yourself
TTITLE25=The Pips - A Love Like Mine
TTITLE26=Wade Flemons - That Other Place
EXTD=
EXTT0=
EXTT1=
EXTT2=
EXTT3=
EXTT4=
EXTT5=
EXTT6=
EXTT7=
EXTT8=
EXTT9=
EXTT10=
EXTT11=
EXTT12=
EXTT13=
EXTT14=
EXTT15=
EXTT16=
EXTT17=
EXTT18=
EXTT19=
EXTT20=
EXTT21=
EXTT22=
EXTT23=
EXTT24=
EXTT25=
EXTT26=
PLAYORDER=
